<svg width="240" height="21" xmlns="http://www.w3.org/2000/svg"><g fill="none" fill-rule="evenodd"><path d="M140.2281 15.8291c-.3841 1.0452-1.0733 1.566-2.0631 1.566h-1.2285v-5.9143h1.2285c.7234 0 1.2734.2322 1.6458.6964.412.5068.6174 1.3132.6174 2.4205 0 .4642-.0663.875-.2 1.2314Zm-3.2916-12.2733h1.2285c.5789 0 1.0508.1983 1.4125.5885.3949.4196.5896 1.043.5896 1.8668 0 .4948-.0556.9111-.1723 1.2478-.3114.9068-.9181 1.359-1.8298 1.359h-1.2285V3.5558Zm5.9497 7.925c-.4558-.7476-1.0123-1.2489-1.663-1.5006.395-.181.7342-.4392 1.0231-.776.6956-.801 1.0401-1.8657 1.0401-3.193 0-.813-.0888-1.5149-.2782-2.1045-.3392-1.1094-.9117-1.9246-1.7068-2.452-.9342-.6223-1.9797-.934-3.1364-.934h-4.398V20.354h5.4381c.734 0 1.4735-.2321 2.2183-.6964.6613-.4108 1.1792-.9601 1.5399-1.6456.4676-.874.6955-1.9387.6955-3.1931 0-.5068-.0332-.9656-.106-1.3764-.1444-.801-.367-1.455-.6666-1.9617Zm7.0171 1.4072 1.084-7.8117 1.0894 7.8117h-2.1734Zm-.917-12.3507-3.3088 19.817h3.0583l.7117-4.5555h3.0636l.6892 4.5554h3.086L153.0227.5372h-4.0364Zm9.3183 3.0044h3.1246v16.8124h2.9363V3.5417h3.1022V.5383h-9.1631v3.0034Zm17.6544 5.411h-3.5377V.5373h-2.9364v19.817h2.9364v-8.3981h3.5377v8.398h2.9342V.5372h-2.9342v8.4155ZM189.6133.3172c-1.283 0-2.3842.4588-3.2916 1.382-.9117.9219-1.3676 2.0433-1.3676 3.363v10.8152c0 1.2969.4516 2.4096 1.357 3.338.9073.9297 2.0074 1.3907 3.3022 1.3907 1.2734 0 2.3628-.4588 3.2755-1.3765.9118-.9165 1.3676-2.0324 1.3676-3.3522V8.9528h-4.6752v3.0035h1.6287v3.896c0 .473-.1616.8752-.4944 1.2065-.3339.3313-.7298.4947-1.1964.4947-.4655 0-.8614-.1634-1.1888-.498-.3232-.3313-.4901-.7334-.4901-1.2086v-10.85c0-.473.1669-.8806.49-1.2174.3275-.3367.7234-.5067 1.189-.5067.4665 0 .8624.17 1.1963.5067.3328.3368.4944.7444.4944 1.2173v2.3246h3.0465V5.0622c0-1.3077-.4494-2.427-1.3504-3.3555-.901-.9252-2.0011-1.3895-3.2927-1.3895m13.0448 7.8903c0 .4762-.167.8806-.4901 1.2173-.3275.3379-.7212.5068-1.1878.5068h-1.77V3.59h1.77c1.1161 0 1.6779.5743 1.6779 1.724v2.8935Zm2.8571-.0621V5.266c0-1.433-.3392-2.5512-1.0101-3.3522-.7684-.9176-1.969-1.3764-3.604-1.3764h-4.625v19.817h2.9342v-7.4663H201.1685l1.7796 7.4662h3.1696l-2.1702-8.653c1.0466-.9677 1.5677-2.1545 1.5677-3.556Zm8.8646 7.6706c0 .473-.1615.8772-.49 1.2085-.3275.3313-.7224.498-1.19.498-.4612 0-.8625-.1667-1.1953-.498-.3274-.3313-.4944-.7356-.4944-1.2085V4.9659c0-.4762.167-.8773.4944-1.2119.3328-.328.734-.498 1.1953-.498.4676 0 .8625.17 1.19.498.3285.3346.49.7357.49 1.2119v10.85ZM212.778.283c-1.2734 0-2.3627.4643-3.2745 1.384-.9127.9231-1.3686 2.0445-1.3686 3.361v10.8185c0 1.3077.4516 2.427 1.3505 3.3522.901.9285 2.002 1.3938 3.2926 1.3938 1.283 0 2.3863-.462 3.2916-1.385.9117-.9232 1.3676-2.0413 1.3676-3.361V5.028c0-1.3077-.4505-2.4237-1.3569-3.3522-.9053-.9285-2.0075-1.3928-3.3023-1.3928Zm12.9223 15.547c0 .4752-.1616.8773-.4901 1.2108-.3275.3324-.7234.4991-1.1889.4991-.4623 0-.8625-.1667-1.1963-.4991-.3286-.3335-.4944-.7356-.4944-1.2108V.538h-2.8753v15.3258c0 1.3056.4515 2.4183 1.3515 3.3348.901.9176 2.0021 1.3764 3.2916 1.3764 1.2851 0 2.3852-.4534 3.2916-1.359.9117-.9067 1.3675-2.0248 1.3675-3.3522V.5379h-3.0572V15.83Zm11.459-7.6225c0 .4762-.1616.8806-.49 1.2173-.3211.3379-.7213.5068-1.1836.5068h-1.7731V3.59h1.7731c.505 0 .9117.158 1.2178.4752.305.315.4558.7312.4558 1.2489v2.8934Zm1.6619-6.2936c-.8486-.9176-1.984-1.3764-3.4125-1.3764h-4.6314v19.817h2.9353v-7.4663h1.696c1.2724 0 2.3575-.462 3.2531-1.3906.8946-.9285 1.3387-2.0466 1.3387-3.3522V5.266c0-1.359-.3884-2.477-1.1792-3.3522Z" fill="#CE343A"/><path d="m127.7049 7.9116-6.4205 4.7516 2.4505 7.694-6.4206-9.0127 10.3906-3.4329Zm-10.3945 3.436v4.2525l-6.4248 4.7537 6.4248-9.0061Zm-10.396-3.4406 10.396 3.4405-3.9711 1.3143-6.4248-4.7548Zm10.396-7.6917 2.4537 7.6919-2.4537 3.4405V.2153ZM3.3582.2235.0003 20.3555h3.1022l.7223-4.6405H6.943l.6913 4.6404h3.1343L7.462.2235H3.3582Zm2.0386 4.624L6.5 12.7693H4.2924l1.1044-7.9218ZM24.098.2147l-2.6666 14.453L18.6557.2146h-4.2793v20.1406h2.9813V7.7213l2.8903 12.634h2.3959l2.581-12.6537v12.6537h2.9813V.2147h-4.108Zm7.8703 0v20.1406h8.4837v-3.0645h-5.5056v-5.473h4.0267V8.7533h-4.0267v-5.486h5.5056V.2146h-8.4837Zm18.094 7.8092c0 .4719-.1616.886-.4976 1.2336-.322.3313-.7255.51-1.1963.51H46.561v-6.444h1.8074c1.13 0 1.694.5798 1.694 1.7612v2.9392Zm2.9042-.0709V5.0335c0-1.4604-.337-2.5818-1.0176-3.409-.7748-.9317-2-1.4014-3.6597-1.4014H43.584v20.133h2.977v-7.5872h1.9957l1.8063 7.5872h3.2263l-2.2097-8.7936c1.0594-.971 1.587-2.1884 1.587-3.6095Zm4.2627 12.4045h2.9834V.2245h-2.9834v20.133ZM68.682 0c-1.3055 0-2.4173.4697-3.345 1.4037-.9214.935-1.3826 2.0837-1.3826 3.4285v10.9743c0 1.3284.457 2.4553 1.374 3.4012.9267.9285 2.0385 1.3983 3.3536 1.3983 1.2938 0 2.4035-.4698 3.3323-1.3906.9235-.934 1.3826-2.0608 1.3826-3.409v-2.8029h-3.0872v2.7779c0 .4784-.1691.886-.504 1.2151-.3371.3477-.7438.5068-1.2125.5068-.475 0-.8785-.1591-1.2081-.5068-.336-.329-.5019-.7367-.5019-1.2151V4.7646c0-.4959.1659-.886.5019-1.237.3296-.3454.733-.5154 1.2081-.5154.4687 0 .8754.17 1.2124.5155.335.3509.504.741.504 1.237v2.356h3.0873V4.8323c0-1.3394-.457-2.4826-1.3719-3.4111C71.1121.4697 69.9949 0 68.6819 0m11.8088 12.7684 1.1022-7.9217 1.1064 7.9217h-2.2086ZM79.5533.2226l-3.358 20.1341h3.1065l.7255-4.6404H83.15l.689 4.6404h3.1365L83.656.2227h-4.1027ZM97.8845.2148v13.5277L93.92.2148h-3.3473v20.1417h2.9888V7.4489l4.0973 12.9076h3.1943V.2148h-2.9685Z" fill="#1E2945"/></g></svg>